<svg xmlns="http://www.w3.org/2000/svg" viewBox="0 0 640 400" role="img" aria-labelledby="title desc">
  <title id="title">Generic minimap placeholder</title>
  <desc id="desc">A muted aerial landscape placeholder used for the minimap analysis feed.</desc>
  <defs>
    <linearGradient id="ground" x1="0" y1="0" x2="1" y2="1">
      <stop offset="0" stop-color="#405049"/>
      <stop offset="0.48" stop-color="#66736c"/>
      <stop offset="1" stop-color="#343f3a"/>
    </linearGradient>
    <linearGradient id="river" x1="0" y1="1" x2="1" y2="0">
      <stop offset="0" stop-color="#627d85"/>
      <stop offset="1" stop-color="#91a7aa"/>
    </linearGradient>
    <filter id="noise">
      <feTurbulence baseFrequency=".85" numOctaves="2" seed="9" type="fractalNoise"/>
      <feColorMatrix values="1 0 0 0 0 0 1 0 0 0 0 0 1 0 0 0 0 0 .12 0"/>
    </filter>
  </defs>
  <rect width="640" height="400" fill="url(#ground)"/>
  <path d="M-30 384C106 300 155 218 255 188 379 151 438 64 674 12" fill="none" stroke="url(#river)" stroke-width="72" opacity=".88"/>
  <path d="M42 356 564 40M78 44l492 310" fill="none" stroke="#a6a996" stroke-width="22" opacity=".58"/>
  <path d="M42 356 564 40M78 44l492 310" fill="none" stroke="#d4d0b4" stroke-width="3" opacity=".46"/>
  <g fill="#26332d" opacity=".68">
    <circle cx="118" cy="287" r="51"/><circle cx="164" cy="241" r="34"/><circle cx="493" cy="102" r="46"/><circle cx="536" cy="147" r="31"/>
    <circle cx="245" cy="322" r="28"/><circle cx="407" cy="76" r="25"/><circle cx="238" cy="96" r="38"/><circle cx="418" cy="298" r="44"/>
  </g>
  <g fill="#d8d3ad" opacity=".78">
    <rect x="40" y="326" width="48" height="48" rx="8"/><rect x="552" y="28" width="48" height="48" rx="8"/>
    <circle cx="186" cy="275" r="10"/><circle cx="457" cy="126" r="10"/><circle cx="316" cy="197" r="13"/>
  </g>
  <rect width="640" height="400" filter="url(#noise)" opacity=".45"/>
</svg>
